<svg width="336" height="179" viewBox="0 0 336 179" fill="none" xmlns="http://www.w3.org/2000/svg">
<circle cx="56" cy="87" r="50" fill="url(#paint0_linear_1_3)"/>
<circle cx="22" cy="26" r="5" fill="url(#paint1_linear_1_3)"/>
<circle cx="68" cy="79" r="5" fill="url(#paint2_linear_1_3)"/>
<circle cx="12" cy="41" r="10" fill="url(#paint3_linear_1_3)"/>
<path d="M118.9 124C118.067 124 117.65 123.583 117.65 122.75V76.4C117.65 75.9667 117.817 75.4667 118.15 74.9L130 58.1C130.367 57.6 130.9 57.35 131.6 57.35H148.15C148.883 57.35 149.417 57.6 149.75 58.1L161.65 74.9C161.983 75.3667 162.15 75.8667 162.15 76.4V122.75C162.15 123.583 161.733 124 160.9 124H146.75C145.917 124 145.5 123.583 145.5 122.75V101.5H134.35V122.75C134.35 123.583 133.933 124 133.1 124H118.9ZM139.9 90.75C142.967 90.75 145.033 90.0833 146.1 88.75C147.2 87.3833 147.75 84.8 147.75 81C147.75 77.2 147.2 74.6333 146.1 73.3C145.033 71.9333 142.967 71.25 139.9 71.25C136.867 71.25 134.8 71.9333 133.7 73.3C132.633 74.6333 132.1 77.2 132.1 81C132.1 84.8 132.633 87.3833 133.7 88.75C134.8 90.0833 136.867 90.75 139.9 90.75ZM191.027 124C190.194 124 189.777 123.583 189.777 122.75V68.5C189.777 67.7333 190.061 67.0667 190.627 66.5L198.927 58.15C199.494 57.6167 200.161 57.35 200.927 57.35H212.377C213.144 57.35 213.811 57.6167 214.377 58.15L222.777 66.6H225.127L233.527 58.15C234.094 57.6167 234.761 57.35 235.527 57.35H246.927C247.727 57.35 248.394 57.6167 248.927 58.15L257.277 66.5C257.844 67.0667 258.127 67.7333 258.127 68.5V122.75C258.127 123.583 257.711 124 256.877 124H242.677C241.844 124 241.427 123.583 241.427 122.75V70.65H232.277V122.75C232.277 123.583 231.861 124 231.027 124H216.877C216.044 124 215.627 123.583 215.627 122.75V70.65H206.427V122.75C206.427 123.583 206.011 124 205.177 124H191.027ZM286.966 124C286.133 124 285.716 123.583 285.716 122.75V76.4C285.716 75.9667 285.883 75.4667 286.216 74.9L298.066 58.1C298.433 57.6 298.966 57.35 299.666 57.35H316.216C316.95 57.35 317.483 57.6 317.816 58.1L329.716 74.9C330.05 75.3667 330.216 75.8667 330.216 76.4V122.75C330.216 123.583 329.8 124 328.966 124H314.816C313.983 124 313.566 123.583 313.566 122.75V101.5H302.416V122.75C302.416 123.583 302 124 301.166 124H286.966ZM307.966 90.75C311.033 90.75 313.1 90.0833 314.166 88.75C315.266 87.3833 315.816 84.8 315.816 81C315.816 77.2 315.266 74.6333 314.166 73.3C313.1 71.9333 311.033 71.25 307.966 71.25C304.933 71.25 302.866 71.9333 301.766 73.3C300.7 74.6333 300.166 77.2 300.166 81C300.166 84.8 300.7 87.3833 301.766 88.75C302.866 90.0833 304.933 90.75 307.966 90.75Z" fill="#FAFAFA"/>
<path d="M41.75 124C40.9167 124 40.5 123.583 40.5 122.75V113.35C40.5 112.917 40.5167 112.567 40.55 112.3C40.6167 112.033 40.8167 111.817 41.15 111.65L54.25 105.65V96.75L41.35 88.75C40.7833 88.4167 40.5 87.9167 40.5 87.25V68.9C40.5 68.3667 40.5333 67.9833 40.6 67.75C40.6667 67.4833 40.9167 67.2 41.35 66.9L54.5 58C54.8333 57.8 55.1333 57.65 55.4 57.55C55.7 57.4167 56.0667 57.35 56.5 57.35H70C70.8333 57.35 71.25 57.7667 71.25 58.6V67.1C71.25 67.8333 71 68.3333 70.5 68.6L57.4 74V83.25L70.5 90.75C71 90.9833 71.25 91.5167 71.25 92.35V114.1C71.25 114.367 71.2 114.65 71.1 114.95C71.0333 115.25 70.8667 115.467 70.6 115.6L54.9 123.4C54.7 123.5 54.45 123.633 54.15 123.8C53.8833 123.933 53.6167 124 53.35 124H41.75Z" fill="#FAFAFA"/>
<path d="M106 137H326" stroke="url(#paint4_linear_1_3)" stroke-width="10" stroke-linecap="round"/>
<defs>
<linearGradient id="paint0_linear_1_3" x1="100" y1="111" x2="20" y2="57" gradientUnits="userSpaceOnUse">
<stop stop-color="#1B4B82"/>
<stop offset="1" stop-color="#95DFE8"/>
</linearGradient>
<linearGradient id="paint1_linear_1_3" x1="18" y1="23" x2="26" y2="29" gradientUnits="userSpaceOnUse">
<stop stop-color="#39639B"/>
<stop offset="0.936407" stop-color="#95DFE8"/>
</linearGradient>
<linearGradient id="paint2_linear_1_3" x1="64" y1="76" x2="72" y2="82" gradientUnits="userSpaceOnUse">
<stop stop-color="#39639B"/>
<stop offset="0.936407" stop-color="#95DFE8"/>
</linearGradient>
<linearGradient id="paint3_linear_1_3" x1="3" y1="37" x2="15" y2="51" gradientUnits="userSpaceOnUse">
<stop stop-color="#39639B"/>
<stop offset="1" stop-color="#95DFE8"/>
</linearGradient>
<linearGradient id="paint4_linear_1_3" x1="106" y1="137.5" x2="326" y2="137.5" gradientUnits="userSpaceOnUse">
<stop stop-color="#1B4B83"/>
<stop offset="1" stop-color="#94DDE7"/>
</linearGradient>
</defs>
</svg>
